{
    "asset" : {
        "generator" : "Khronos glTF Blender I/O v3.2.43",
        "version" : "2.0"
    },
    "scene" : 0,
    "scenes" : [
        {
            "name" : "Scene",
            "nodes" : [
                0,
                1,
                2,
                3,
                4,
                5,
                6,
                7
            ]
        }
    ],
    "nodes" : [
        {
            "mesh" : 0,
            "name" : "Cube",
            "scale" : [
                0.5,
                1,
                0.5
            ],
            "translation" : [
                -0.3098195493221283,
                0.27504533529281616,
                0.4936729073524475
            ]
        },
        {
            "mesh" : 1,
            "name" : "Cylinder",
            "translation" : [
                -0.2561977207660675,
                0.2750489413738251,
                0.4400729835033417
            ]
        },
        {
            "mesh" : 2,
            "name" : "Cylinder.001",
            "rotation" : [
                0,
                0.7071068286895752,
                0,
                0.7071068286895752
            ],
            "translation" : [
                -0.305218368768692,
                0.2750489413738251,
                0.44005101919174194
            ]
        },
        {
            "mesh" : 3,
            "name" : "Cylinder.002",
            "rotation" : [
                0,
                -0.7071068286895752,
                0,
                0.7071068286895752
            ],
            "translation" : [
                -0.3144206702709198,
                0.2750489413738251,
                0.5472947359085083
            ]
        },
        {
            "mesh" : 4,
            "name" : "Cylinder.003",
            "rotation" : [
                0,
                -0.7071068286895752,
                0,
                0.7071068286895752
            ],
            "translation" : [
                -0.25621962547302246,
                0.2750489413738251,
                0.4890936613082886
            ]
        },
        {
            "mesh" : 5,
            "name" : "Plane.001",
            "scale" : [
                0.8712128400802612,
                0.8712128400802612,
                0.8712128400802612
            ]
        },
        {
            "mesh" : 6,
            "name" : "Cube.001",
            "scale" : [
                2,
                2,
                2
            ],
            "translation" : [
                0,
                1.3999998569488525,
                0
            ]
        },
        {
            "name" : "Empty",
            "scale" : [
                1,
                0,
                1
            ],
            "translation" : [
                0,
                -2.415872812271118,
                0
            ]
        }
    ],
    "animations" : [
        {
            "channels" : [
                {
                    "sampler" : 0,
                    "target" : {
                        "node" : 7,
                        "path" : "translation"
                    }
                },
                {
                    "sampler" : 1,
                    "target" : {
                        "node" : 7,
                        "path" : "scale"
                    }
                }
            ],
            "name" : "EmptyAction.002",
            "samplers" : [
                {
                    "input" : 25,
                    "interpolation" : "LINEAR",
                    "output" : 26
                },
                {
                    "input" : 25,
                    "interpolation" : "LINEAR",
                    "output" : 27
                }
            ]
        }
    ],
    "materials" : [
        {
            "doubleSided" : true,
            "name" : "Gray",
            "pbrMetallicRoughness" : {
                "baseColorFactor" : [
                    0.5520107746124268,
                    0.5520108938217163,
                    0.5520114302635193,
                    1
                ],
                "metallicFactor" : 0,
                "roughnessFactor" : 0.5
            }
        },
        {
            "doubleSided" : true,
            "name" : "Blue",
            "pbrMetallicRoughness" : {
                "baseColorFactor" : [
                    0.0703597366809845,
                    0.16826914250850677,
                    0.4125426411628723,
                    1
                ],
                "metallicFactor" : 0,
                "roughnessFactor" : 0.5
            }
        },
        {
            "doubleSided" : true,
            "name" : "Green",
            "pbrMetallicRoughness" : {
                "baseColorFactor" : [
                    0.13563315570354462,
                    0.3139886260032654,
                    0.010329912416636944,
                    1
                ],
                "metallicFactor" : 0,
                "roughnessFactor" : 0.5
            }
        },
        {
            "doubleSided" : true,
            "name" : "Gray Contour",
            "pbrMetallicRoughness" : {
                "baseColorFactor" : [
                    0.5520107746124268,
                    0.5520108938217163,
                    0.5520114302635193,
                    1
                ],
                "metallicFactor" : 0,
                "roughnessFactor" : 0.5
            }
        }
    ],
    "meshes" : [
        {
            "name" : "Cube",
            "primitives" : [
                {
                    "attributes" : {
                        "POSITION" : 0,
                        "NORMAL" : 1,
                        "TEXCOORD_0" : 2
                    },
                    "indices" : 3,
                    "material" : 0
                }
            ]
        },
        {
            "name" : "Cylinder.004",
            "primitives" : [
                {
                    "attributes" : {
                        "POSITION" : 4,
                        "NORMAL" : 5,
                        "TEXCOORD_0" : 6
                    },
                    "indices" : 7,
                    "material" : 0
                }
            ]
        },
        {
            "name" : "Cylinder.005",
            "primitives" : [
                {
                    "attributes" : {
                        "POSITION" : 8,
                        "NORMAL" : 9,
                        "TEXCOORD_0" : 10
                    },
                    "indices" : 7,
                    "material" : 1
                }
            ]
        },
        {
            "name" : "Cylinder.006",
            "primitives" : [
                {
                    "attributes" : {
                        "POSITION" : 11,
                        "NORMAL" : 12,
                        "TEXCOORD_0" : 13
                    },
                    "indices" : 7,
                    "material" : 0
                }
            ]
        },
        {
            "name" : "Cylinder.007",
            "primitives" : [
                {
                    "attributes" : {
                        "POSITION" : 14,
                        "NORMAL" : 15,
                        "TEXCOORD_0" : 16
                    },
                    "indices" : 7,
                    "material" : 2
                }
            ]
        },
        {
            "name" : "Plane.003",
            "primitives" : [
                {
                    "attributes" : {
                        "POSITION" : 17,
                        "NORMAL" : 18,
                        "TEXCOORD_0" : 19
                    },
                    "indices" : 20,
                    "material" : 3
                }
            ]
        },
        {
            "name" : "Cube.001",
            "primitives" : [
                {
                    "attributes" : {
                        "POSITION" : 21,
                        "NORMAL" : 22,
                        "TEXCOORD_0" : 23
                    },
                    "indices" : 24
                }
            ]
        }
    ],
    "accessors" : [
        {
            "bufferView" : 0,
            "componentType" : 5126,
            "count" : 24,
            "max" : [
                0.05820101499557495,
                0.003631534054875374,
                0.058201029896736145
            ],
            "min" : [
                -0.05820101499557495,
                -0.003631534054875374,
                -0.058201029896736145
            ],
            "type" : "VEC3"
        },
        {
            "bufferView" : 1,
            "componentType" : 5126,
            "count" : 24,
            "type" : "VEC3"
        },
        {
            "bufferView" : 2,
            "componentType" : 5126,
            "count" : 24,
            "type" : "VEC2"
        },
        {
            "bufferView" : 3,
            "componentType" : 5123,
            "count" : 36,
            "type" : "SCALAR"
        },
        {
            "bufferView" : 4,
            "componentType" : 5126,
            "count" : 48,
            "max" : [
                0.033679716289043427,
                0.0036279396153986454,
                0.024609796702861786
            ],
            "min" : [
                -0.024521317332983017,
                -0.0036351284943521023,
                -0.033701635897159576
            ],
            "type" : "VEC3"
        },
        {
            "bufferView" : 5,
            "componentType" : 5126,
            "count" : 48,
            "type" : "VEC3"
        },
        {
            "bufferView" : 6,
            "componentType" : 5126,
            "count" : 48,
            "type" : "VEC2"
        },
        {
            "bufferView" : 7,
            "componentType" : 5123,
            "count" : 84,
            "type" : "SCALAR"
        },
        {
            "bufferView" : 8,
            "componentType" : 5126,
            "count" : 48,
            "max" : [
                0.03367970138788223,
                0.003627939848229289,
                0.024609796702861786
            ],
            "min" : [
                -0.02452131174504757,
                -0.0036351282615214586,
                -0.033701635897159576
            ],
            "type" : "VEC3"
        },
        {
            "bufferView" : 9,
            "componentType" : 5126,
            "count" : 48,
            "type" : "VEC3"
        },
        {
            "bufferView" : 10,
            "componentType" : 5126,
            "count" : 48,
            "type" : "VEC2"
        },
        {
            "bufferView" : 11,
            "componentType" : 5126,
            "count" : 48,
            "max" : [
                0.03367970138788223,
                0.003627938451245427,
                0.024609820917248726
            ],
            "min" : [
                -0.024521317332983017,
                -0.0036351296585053205,
                -0.03370164334774017
            ],
            "type" : "VEC3"
        },
        {
            "bufferView" : 12,
            "componentType" : 5126,
            "count" : 48,
            "type" : "VEC3"
        },
        {
            "bufferView" : 13,
            "componentType" : 5126,
            "count" : 48,
            "type" : "VEC2"
        },
        {
            "bufferView" : 14,
            "componentType" : 5126,
            "count" : 48,
            "max" : [
                0.033679693937301636,
                0.0036279393825680017,
                0.024609800428152084
            ],
            "min" : [
                -0.024521317332983017,
                -0.003635128727182746,
                -0.033701639622449875
            ],
            "type" : "VEC3"
        },
        {
            "bufferView" : 15,
            "componentType" : 5126,
            "count" : 48,
            "type" : "VEC3"
        },
        {
            "bufferView" : 16,
            "componentType" : 5126,
            "count" : 48,
            "type" : "VEC2"
        },
        {
            "bufferView" : 17,
            "componentType" : 5126,
            "count" : 4,
            "max" : [
                1,
                0,
                1
            ],
            "min" : [
                -1,
                0,
                -1
            ],
            "type" : "VEC3"
        },
        {
            "bufferView" : 18,
            "componentType" : 5126,
            "count" : 4,
            "type" : "VEC3"
        },
        {
            "bufferView" : 19,
            "componentType" : 5126,
            "count" : 4,
            "type" : "VEC2"
        },
        {
            "bufferView" : 20,
            "componentType" : 5123,
            "count" : 6,
            "type" : "SCALAR"
        },
        {
            "bufferView" : 21,
            "componentType" : 5126,
            "count" : 4869,
            "max" : [
                0.5957878828048706,
                0.5659984946250916,
                0.5957878828048706
            ],
            "min" : [
                -0.5957878828048706,
                -0.6255772709846497,
                -0.5957878828048706
            ],
            "type" : "VEC3"
        },
        {
            "bufferView" : 22,
            "componentType" : 5126,
            "count" : 4869,
            "type" : "VEC3"
        },
        {
            "bufferView" : 23,
            "componentType" : 5126,
            "count" : 4869,
            "type" : "VEC2"
        },
        {
            "bufferView" : 24,
            "componentType" : 5123,
            "count" : 25362,
            "type" : "SCALAR"
        },
        {
            "bufferView" : 25,
            "componentType" : 5126,
            "count" : 120,
            "max" : [
                4
            ],
            "min" : [
                0.03333333333333333
            ],
            "type" : "SCALAR"
        },
        {
            "bufferView" : 26,
            "componentType" : 5126,
            "count" : 120,
            "type" : "VEC3"
        },
        {
            "bufferView" : 27,
            "componentType" : 5126,
            "count" : 120,
            "type" : "VEC3"
        }
    ],
    "bufferViews" : [
        {
            "buffer" : 0,
            "byteLength" : 288,
            "byteOffset" : 0
        },
        {
            "buffer" : 0,
            "byteLength" : 288,
            "byteOffset" : 288
        },
        {
            "buffer" : 0,
            "byteLength" : 192,
            "byteOffset" : 576
        },
        {
            "buffer" : 0,
            "byteLength" : 72,
            "byteOffset" : 768
        },
        {
            "buffer" : 0,
            "byteLength" : 576,
            "byteOffset" : 840
        },
        {
            "buffer" : 0,
            "byteLength" : 576,
            "byteOffset" : 1416
        },
        {
            "buffer" : 0,
            "byteLength" : 384,
            "byteOffset" : 1992
        },
        {
            "buffer" : 0,
            "byteLength" : 168,
            "byteOffset" : 2376
        },
        {
            "buffer" : 0,
            "byteLength" : 576,
            "byteOffset" : 2544
        },
        {
            "buffer" : 0,
            "byteLength" : 576,
            "byteOffset" : 3120
        },
        {
            "buffer" : 0,
            "byteLength" : 384,
            "byteOffset" : 3696
        },
        {
            "buffer" : 0,
            "byteLength" : 576,
            "byteOffset" : 4080
        },
        {
            "buffer" : 0,
            "byteLength" : 576,
            "byteOffset" : 4656
        },
        {
            "buffer" : 0,
            "byteLength" : 384,
            "byteOffset" : 5232
        },
        {
            "buffer" : 0,
            "byteLength" : 576,
            "byteOffset" : 5616
        },
        {
            "buffer" : 0,
            "byteLength" : 576,
            "byteOffset" : 6192
        },
        {
            "buffer" : 0,
            "byteLength" : 384,
            "byteOffset" : 6768
        },
        {
            "buffer" : 0,
            "byteLength" : 48,
            "byteOffset" : 7152
        },
        {
            "buffer" : 0,
            "byteLength" : 48,
            "byteOffset" : 7200
        },
        {
            "buffer" : 0,
            "byteLength" : 32,
            "byteOffset" : 7248
        },
        {
            "buffer" : 0,
            "byteLength" : 12,
            "byteOffset" : 7280
        },
        {
            "buffer" : 0,
            "byteLength" : 58428,
            "byteOffset" : 7292
        },
        {
            "buffer" : 0,
            "byteLength" : 58428,
            "byteOffset" : 65720
        },
        {
            "buffer" : 0,
            "byteLength" : 38952,
            "byteOffset" : 124148
        },
        {
            "buffer" : 0,
            "byteLength" : 50724,
            "byteOffset" : 163100
        },
        {
            "buffer" : 0,
            "byteLength" : 480,
            "byteOffset" : 213824
        },
        {
            "buffer" : 0,
            "byteLength" : 1440,
            "byteOffset" : 214304
        },
        {
            "buffer" : 0,
            "byteLength" : 1440,
            "byteOffset" : 215744
        }
    ],
    "buffers" : [
        {
            "byteLength" : 217184,
            "uri" : "data:application/octet-stream;base64,"
        }
    ]
}
